<?xml version="1.0" encoding="UTF-8" standalone="no"?>
<!-- Generator: Adobe Illustrator 12.0.0, SVG Export Plug-In . SVG Version: 6.00 Build 51448)  -->
<svg
   xmlns:dc="http://purl.org/dc/elements/1.1/"
   xmlns:cc="http://creativecommons.org/ns#"
   xmlns:rdf="http://www.w3.org/1999/02/22-rdf-syntax-ns#"
   xmlns:svg="http://www.w3.org/2000/svg"
   xmlns="http://www.w3.org/2000/svg"
   xmlns:sodipodi="http://sodipodi.sourceforge.net/DTD/sodipodi-0.dtd"
   xmlns:inkscape="http://www.inkscape.org/namespaces/inkscape"
   version="1.0"
   id="Layer_1"
   width="200"
   height="100"
   viewBox="0 0 564.893 155.72"
   overflow="visible"
   enable-background="new 0 0 564.893 155.72"
   xml:space="preserve"
   sodipodi:version="0.32"
   inkscape:version="0.46"
   sodipodi:docname="Flickr_Logo.svg"
   inkscape:output_extension="org.inkscape.output.svg.inkscape"
   style="overflow:visible"><metadata
   id="metadata40"><rdf:RDF><cc:Work
       rdf:about=""><dc:format>image/svg+xml</dc:format><dc:type
         rdf:resource="http://purl.org/dc/dcmitype/StillImage" /></cc:Work></rdf:RDF></metadata><defs
   id="defs38"><inkscape:perspective
   sodipodi:type="inkscape:persp3d"
   inkscape:vp_x="0 : 77.860001 : 1"
   inkscape:vp_y="0 : 1000 : 0"
   inkscape:vp_z="564.89301 : 77.860001 : 1"
   inkscape:persp3d-origin="282.4465 : 51.906667 : 1"
   id="perspective42" />
	
	
</defs><sodipodi:namedview
   inkscape:window-height="968"
   inkscape:window-width="1280"
   inkscape:pageshadow="2"
   inkscape:pageopacity="0.0"
   guidetolerance="10.0"
   gridtolerance="10.0"
   objecttolerance="10.0"
   borderopacity="1.0"
   bordercolor="#666666"
   pagecolor="#ffffff"
   id="base"
   showgrid="false"
   inkscape:zoom="2.7238156"
   inkscape:cx="80.628073"
   inkscape:cy="113.27888"
   inkscape:window-x="0"
   inkscape:window-y="22"
   inkscape:current-layer="Layer_1"
   width="200px"
   borderlayer="false"
   inkscape:showpageshadow="true" />

<path
   style="opacity:1;fill:#dfdfdf;fill-opacity:1;fill-rule:evenodd;stroke:#000000;stroke-width:7.62763405000000020;stroke-linecap:square;stroke-linejoin:bevel;stroke-miterlimit:4;stroke-dasharray:none;stroke-dashoffset:0;stroke-opacity:1"
   d="M 498.60346,71.438433 C 497.70494,109.55545 462.62273,134.96861 431.34168,149.91452 C 358.51987,182.61153 275.01705,186.69254 197.36482,171.34087 C 151.85915,160.88427 102.19802,143.94362 74.648209,103.66997 C 57.323219,78.874583 64.837779,44.210589 86.288329,24.443949 C 128.03082,-15.616071 187.38766,-29.569511 243.37766,-35.294561 C 314.57724,-40.831331 390.02239,-32.726351 452.33231,4.5097488 C 475.55101,19.230629 498.55107,42.029959 498.60346,71.438433 z"
   id="path2431" />

<g
   id="g5"
   transform="matrix(0.6156088,0,0,0.6156088,110.48203,23.713389)">





		<path
   style="fill:#0063db"
   d="M 20.591,73.836998 C 13.727333,73.836998 6.8636665,73.836998 0,73.836998 C 0,65.386665 0,56.936333 0,48.486 C 7.0576668,48.486 14.115334,48.486 21.173,48.486 C 21.1558,40.883252 21.016605,33.190971 22.858257,25.75672 C 24.500565,18.610741 28.158339,11.666612 34.195243,7.2986353 C 41.188892,2.1556103 50.05968,0.55167265 58.549344,0.11380807 C 65.856187,-0.33550331 73.176991,0.4252732 80.340405,1.8575684 C 81.555819,1.6662449 81.07691,2.7691961 81.065344,3.5156076 C 80.396229,11.330405 79.727114,19.145202 79.057999,26.959999 C 74.886435,25.492583 70.378695,25.147817 65.991507,25.466637 C 62.285247,25.783724 58.882281,28.180648 57.416563,31.611777 C 55.028879,36.817256 55.645515,42.624114 55.555,48.182962 C 55.507734,48.834276 56.618715,48.327342 57.063106,48.487 C 64.84807,48.487 72.633035,48.487 80.417999,48.487 C 80.417999,56.937332 80.417999,65.387665 80.417999,73.837997 C 72.130333,73.837997 63.842667,73.837997 55.555,73.837997 C 55.555,100.327 55.555,126.81599 55.555,153.30499 C 43.900333,153.30499 32.245667,153.30499 20.591,153.30499 C 20.591,126.81566 20.591,100.32633 20.591,73.836998 z"
   id="path7" />
	
	<path
   style="fill:#0063db"
   d="M 98.675003,2.415 C 110.32967,2.415 121.98434,2.415 133.63901,2.415 C 133.63901,52.711334 133.63901,103.00767 133.63901,153.304 C 121.98434,153.304 110.32967,153.304 98.675003,153.304 C 98.675003,103.00767 98.675003,52.711334 98.675003,2.415 z"
   id="rect9" />
		
<path
   style="fill:#0063db"
   d="M 163.552,4.829 C 175.207,4.829 186.862,4.829 198.517,4.829 C 198.517,13.681333 198.517,22.533666 198.517,31.386 C 186.862,31.386 175.207,31.386 163.552,31.386 C 163.552,22.533666 163.552,13.681333 163.552,4.829 z"
   id="rect11" />
		<path
   style="fill:#0063db"
   d="M 163.552,48.486 C 175.207,48.486 186.862,48.486 198.517,48.486 C 198.517,83.425003 198.517,118.36401 198.517,153.30301 C 186.862,153.30301 175.207,153.30301 163.552,153.30301 C 163.552,118.36401 163.552,83.425003 163.552,48.486 z"
   id="rect13" />
		<path
   style="fill:#0063db"
   d="M 303.604,78.461998 C 297.57071,74.542221 290.37748,72.630301 283.20846,72.634321 C 275.49014,72.365533 267.53058,75.329449 262.46739,81.284572 C 256.79817,87.829096 254.92088,96.954354 255.86824,105.40555 C 256.82959,113.63864 261.98237,121.1559 269.20009,125.18673 C 274.9828,128.56159 281.86003,129.64736 288.4701,129.0037 C 294.58224,128.5056 300.71343,127.07949 306.13,124.133 C 306.389,133.11933 306.64801,142.10566 306.90701,151.092 C 296.74787,154.51108 285.95053,156.00059 275.2445,155.66223 C 261.57338,155.18075 247.66202,150.97881 237.14279,141.98666 C 228.21615,134.48499 222.38791,123.64117 220.45017,112.19212 C 218.3724,99.798559 219.54971,86.598907 225.14538,75.236771 C 230.3359,64.563837 239.66445,56.171902 250.52555,51.523341 C 262.69496,46.256723 276.36152,45.069354 289.4266,46.826365 C 295.20733,47.655351 300.90804,49.266061 306.13,51.908 C 305.288,60.759333 304.446,69.610665 303.604,78.461998 z"
   id="path15" />
		<path
   style="fill:#0063db"
   d="M 321.47699,2.415 C 333.13133,2.415 344.78566,2.415 356.44,2.415 C 356.44,32.459332 356.44,62.503664 356.44,92.547997 C 357.12635,92.648394 357.24437,91.691657 357.66083,91.290041 C 367.09555,77.022027 376.53028,62.754014 385.965,48.486 C 398.72033,48.486 411.47566,48.486 424.23099,48.486 C 412.51166,64.513667 400.79233,80.541334 389.073,96.569 C 401.76366,115.48067 414.45433,134.39233 427.14499,153.304 C 413.02966,153.304 398.91434,153.304 384.79901,153.304 C 375.47568,136.00233 366.15234,118.70067 356.82901,101.399 C 356.07628,101.27864 356.59089,102.42563 356.44,102.90711 C 356.44,119.70607 356.44,136.50504 356.44,153.304 C 344.78566,153.304 333.13133,153.304 321.47699,153.304 C 321.47699,103.00767 321.47699,52.711334 321.47699,2.415 z"
   id="polygon17" />
		<path
   style="fill:#ff0084"
   d="M 512.41699,77.456001 C 507.74237,76.056876 502.78215,76.163022 497.95694,76.36044 C 491.5477,76.79597 485.30417,79.961238 481.52589,85.217674 C 476.61872,91.910965 475.20421,100.44032 475.12367,108.56453 C 475.11978,123.47768 475.12312,138.39084 475.12201,153.304 C 463.46767,153.304 451.81333,153.304 440.159,153.304 C 440.159,118.36467 440.159,83.425334 440.159,48.486 C 450.77733,48.486 461.39567,48.486 472.01401,48.486 C 472.01401,54.924001 472.01401,61.362002 472.01401,67.800003 C 473.30394,67.025148 473.59886,64.644713 474.63749,63.336418 C 478.20694,56.765024 483.56456,50.80133 490.6951,48.102512 C 498.17186,45.151238 506.43268,45.931804 514.167,47.278 C 513.58366,57.337334 513.00033,67.396668 512.41699,77.456001 z"
   id="path19" />
		<path
   style="fill:#ff0084"
   d="M 527.59601,50.755001 C 525.57835,50.755001 523.56069,50.755001 521.54303,50.755001 C 521.54303,49.629668 521.54303,48.504335 521.54303,47.379002 C 526.77502,47.379002 532.00702,47.379002 537.23901,47.379002 C 537.23901,48.504335 537.23901,49.629668 537.23901,50.755001 C 535.22201,50.755001 533.205,50.755001 531.18799,50.755001 C 531.18799,56.317334 531.18799,61.879668 531.18799,67.442001 C 529.99066,67.442001 528.79333,67.442001 527.59601,67.442001 C 527.59601,61.879668 527.59601,56.317334 527.59601,50.755001 z"
   id="polygon21" />
		<path
   style="fill:#ff0084"
   d="M 541.87402,47.379002 C 543.73401,47.379002 545.59399,47.379002 547.45398,47.379002 C 549.17133,51.896667 550.88867,56.414333 552.60602,60.931999 C 554.29234,56.414333 555.97866,51.896667 557.66498,47.379002 C 559.52431,47.379002 561.38365,47.379002 563.24298,47.379002 C 563.24298,54.066668 563.24298,60.754335 563.24298,67.442001 C 562.04498,67.442001 560.84698,67.442001 559.64899,67.442001 C 559.64899,62.329667 559.64899,57.217333 559.64899,52.105 C 559.29275,52.500349 559.198,53.268018 558.94287,53.807334 C 557.30324,58.352223 555.66361,62.897112 554.02399,67.442001 C 553.04732,67.442001 552.07066,67.442001 551.09399,67.442001 C 549.249,62.329667 547.40401,57.217333 545.55902,52.105 C 545.34089,52.521438 545.5268,53.341927 545.46503,53.914726 C 545.46503,58.423818 545.46503,62.93291 545.46503,67.442001 C 544.26803,67.442001 543.07102,67.442001 541.87402,67.442001 C 541.87402,60.754335 541.87402,54.066668 541.87402,47.379002 z"
   id="polygon23" />


	</g>




</svg>